# xmcd
#
# Track frame offsets:
# 150
# 15119
# 29297
# 42590
# 56866
# 71500
# 85844
# 99690
# 115806
# 132896
# 145510
# 159660
# 175775
# 192688
#
# Disc length: 2766 seconds
#
#
# Revision: 0
# Processed by: cddbd v1.5.2PL0 Copyright (c) Steve Scherf et al.
# Submitted via: FreeRIP 2.951 
#
DISCID=bc0acc0e
DTITLE=Musical JM - Como Vai Você? - 
DYEAR=1900
DGENRE=Ambient
TTITLE0=Depois do Temporal
TTITLE1=Risca Faca
TTITLE2=Só Por Deus
TTITLE3=Como Vai Você?
TTITLE4=Toca DJ
TTITLE5=Princesinha
TTITLE6=Cadê a Preliminar
TTITLE7=S.O.S. Coração
TTITLE8=Tá Ruin Minha Internet
TTITLE9=Por Causa de Um Cara
TTITLE10=Linda Bailarina
TTITLE11=Qualquer Noite Dessas
TTITLE12=Lembranças
TTITLE13=Saudade do Juninho
EXTD=
EXTT0=
EXTT1=
EXTT2=
EXTT3=
EXTT4=
EXTT5=
EXTT6=
EXTT7=
EXTT8=
EXTT9=
EXTT10=
EXTT11=
EXTT12=
EXTT13=
PLAYORDER=
